<svg width="142" height="302" viewBox="0 0 142 302" fill="none" xmlns="http://www.w3.org/2000/svg">
<path d="M40.5 102H141.5M40.5 102L0.5 1M40.5 102V112M141.5 102L91.5 1H0.5M141.5 102V301.5H40.5M0.5 1V9M40.5 301.5L0.5 201.5V9M40.5 301.5V112M50 291H130.5M50 281H130.5M50 271H130.5M50 286H130.5M50 276H130.5M130 131V111H50V131M130 131H50M130 131V161M50 131V161M65.5 121H120M50 161H130M50 161V191H130V161M50 261H130.5M50 266H130.5M40.5 112L0.5 9M70 116.5V126.5H100V116.5H70ZM53 164H62V174H53V164ZM65.5 164V174H100V164H65.5ZM103 164V169H127V164H103ZM103 171V183H127V171H103ZM100 183V176.5H65.5V183H100ZM53 176.5H62V186.5H53V176.5Z" stroke="black"/>
<circle cx="110" cy="117" r="1" fill="black"/>
<circle cx="65" cy="145" r="1" fill="black"/>
<path d="M60 152.5V158.5M62 152.5V158.5M64 152.5V158.5M66 152.5V158.5M68 152.5V158.5M70 152.5V158.5M72 152.5V158.5M74 152.5V158.5M76 152.5V158.5M78 152.5V158.5M80 152.5V158.5M82 152.5V158.5M84 152.5V158.5M86 152.5V158.5M88 152.5V158.5M90 152.5V158.5M92 152.5V158.5M94 152.5V158.5M96 152.5V158.5M98 152.5V158.5M100 152.5V158.5M102 152.5V158.5M104 152.5V158.5M106 152.5V158.5M108 152.5V158.5M110 152.5V158.5M112 152.5V158.5M114 152.5V158.5M116 152.5V158.5M118 152.5V158.5M120 152.5V158.5M60 134.5V149H120V134.5H60Z" stroke="black"/>
<rect x="114" y="136" width="4" height="2" fill="black"/>
<rect x="82" y="123" width="4" height="2" fill="black"/>
<rect x="72.5" y="118.5" width="2" height="6" stroke="black"/>
<circle cx="115.5" cy="176.5" r="2" stroke="black"/>
<rect x="50.5" y="201.5" width="19" height="9" rx="4.5" stroke="black"/>
<rect x="110.5" y="200.5" width="19" height="11" stroke="black"/>
</svg>
