<?xml version='1.0' encoding='iso-8859-1'?>
<svg version="1.1" xmlns="http://www.w3.org/2000/svg" viewBox="0 0 490 490" xmlns:xlink="http://www.w3.org/1999/xlink" enable-background="new 0 0 490 490">
  <path d="m445,460h-24.998v-445c0-8.284-6.716-15-15-15h-320.002c-8.284,0-15,6.716-15,15v445h-25c-8.284,0-15,6.716-15,15s6.716,15 15,15h400c8.284,0 15-6.716 15-15s-6.716-15-15-15zm-54.998,0h-290.002v-430h290.002v430zm-245-160h199.998c8.284,0 15-6.716 15-15v-210c0-8.284-6.716-15-15-15h-199.998c-8.284,0-15,6.716-15,15v210c0,8.284 6.716,15 15,15zm15-210h169.998v40h-169.998v-40zm0,70h169.998v40h-169.998v-40zm0,70h169.998v40h-169.998v-40zm84.998,107.497c-24.813,0-44.999,20.188-44.999,45.004 0,24.813 20.188,45.001 45.001,45.001 24.813,0 44.999-20.188 44.999-45.004-5.68434e-14-24.813-20.188-45.001-45.001-45.001zm0,60.005c-8.271,0-14.999-6.729-14.999-15.004 0-8.271 6.729-15.001 14.999-15.001h0.002c8.271,0 14.999,6.729 14.999,15.004-5.68434e-14,8.271-6.73,15.001-15.001,15.001z"/>
</svg>
